Coordinates
version=1
nRows=6
nColumns=36
inDegrees=yes

Units are S.I. units (second, meters, Newtons, ...)
If the header above contains a line with 'inDegrees', this indicates whether rotational values are in degrees (yes) or radians (no).

endheader
time	pelvis_tilt	pelvis_list	pelvis_rotation	pelvis_tx	pelvis_ty	pelvis_tz	hip_flexion_r	hip_adduction_r	hip_rotation_r	knee_angle_r	knee_angle_r_beta	ankle_angle_r	subtalar_angle_r	mtp_angle_r	hip_flexion_l	hip_adduction_l	hip_rotation_l	knee_angle_l	knee_angle_l_beta	ankle_angle_l	subtalar_angle_l	mtp_angle_l	lumbar_extension	lumbar_bending	lumbar_rotation	arm_flex_r	arm_add_r	arm_rot_r	elbow_flex_r	pro_sup_r	arm_flex_l	arm_add_l	arm_rot_l	elbow_flex_l	pro_sup_l
      6.27500000	     -4.89587509	      1.16462198	     -0.13983256	      0.34833215	      0.97973149	     -0.09760536	     -0.73475096	     -6.14447204	     -6.81477774	      0.34368917	      0.00599851	      5.72412492	    -10.21486173	     -7.49999987	      1.75775296	     -3.34897438	     -5.78408242	      1.18835807	      0.02074076	      0.92599201	     -2.57759036	     -7.49999987	     -0.39126209	     -1.46864294	     -2.18832166	    -21.28653933	     -4.87354236	     11.61418496	    112.61993788	     91.99838110	     -4.33423071	     -9.27905720	     23.42543877	    118.30233486	     66.67536471
      6.27916670	     -4.92871479	      1.16777823	     -0.26982155	      0.34466868	      0.97967615	     -0.09316246	     -0.66722200	     -6.17329771	     -6.84256781	      0.34719557	      0.00605971	      5.75113697	    -10.23230021	     -7.49999987	      1.74092774	     -3.32877106	     -5.79544354	      1.16959792	      0.02041333	      0.96331137	     -2.59284612	     -7.49999987	     -0.38252549	     -1.43900822	     -2.29600711	    -21.28796293	     -4.90303461	     11.54652705	    112.60436257	     91.99633871	     -4.18464931	     -9.31596643	     23.41434254	    118.37727528	     66.68049620
      6.28333330	     -4.89157449	      1.19847304	     -0.19810732	      0.34838948	      0.97969855	     -0.09762910	     -0.75508768	     -6.25993626	     -6.88825174	      0.34932758	      0.00609692	      5.63120738	    -10.19814481	     -7.49999987	      1.67123286	     -3.24678577	     -5.84733037	      1.15427506	      0.02014590	      1.06522091	     -2.55433104	     -7.49999987	     -0.35850657	     -1.49892251	     -2.57881714	    -21.26912411	     -4.93596781	     10.75033418	    112.26573107	     92.00579470	     -3.66137859	     -9.80669170	     23.98044593	    119.38954473	     66.83172092
      6.28750000	     -4.78039498	      1.22211560	     -0.29826825	      0.34855992	      0.97997391	     -0.09779229	     -0.91414742	     -6.35162529	     -6.81054769	      0.35356173	      0.00617082	      5.53105370	    -10.32701380	     -7.49999987	      1.46353957	     -3.14904299	     -5.86874536	      1.10869000	      0.01935029	      1.18954185	     -2.47967326	     -7.49999987	     -0.43294617	     -1.50144957	     -2.46110420	    -21.55555534	     -4.79387972	     10.67252065	    112.22988627	     90.70453943	     -3.03618219	    -10.02422239	     24.60648469	    119.44088432	     66.76475195
      6.29166670	     -4.70152472	      1.23820500	     -0.32777503	      0.34851619	      0.97994459	     -0.09768677	     -1.04111983	     -6.41391246	     -6.89945148	      0.36162560	      0.00631156	      5.58047679	    -10.21510581	     -7.49999987	      1.30979441	     -3.06779670	     -5.80493144	      1.06565234	      0.01859914	      1.30226625	     -2.46784044	     -7.49999987	     -0.45754124	     -1.46180080	     -2.47278874	    -21.64058454	     -4.80812671	     10.84199842	    112.14460866	     89.28774501	     -2.56775528	    -10.25489544	     25.12841833	    119.53363754	     66.62209940
      6.29583330	     -4.67459310	      1.27646905	     -0.39532507	      0.34862808	      0.98010667	     -0.09779884	     -1.09318545	     -6.49875589	     -6.78438428	      0.37028192	      0.00646264	      5.47393406	    -10.35835138	     -7.49999987	      1.21915310	     -2.94858062	     -5.73320646	      1.01084505	      0.01764257	      1.25724672	     -2.68291349	     -7.49999987	     -0.43109966	     -1.44572443	     -2.58141005	    -21.55313481	     -4.93094350	     11.26249888	    111.90804235	     88.70983106	     -1.94940015	    -10.68228772	     25.70502757	    119.55271685	     66.57178252
